<svg version="1" xmlns="http://www.w3.org/2000/svg" width="336" height="336" viewBox="0 0 252.000000 252.000000"><path d="M140.3 28c-4.4 1-5.5 2-13.7 13-3.9 5.2-7.6 10.2-8.3 11-.7.8-6.1 8-12 16-6.6 8.8-12.1 15.2-14.2 16.4-3 1.7-5.3 2-18.5 2-14.7 0-30.6-.9-35.6-1.9-1.4-.3-5.1-1-8.2-1.5-3.1-.6-9.5-2.3-14.2-3.9-9.9-3.3-11.1-2.8-11 4.3.2 11.6 13.1 26.3 29.9 34.1 6.6 3.1 19.9 6.6 31 8.1 5.9.7 9 1.8 10 3.4.4.6-1.1 4.9-3.3 9.4-7.8 15.9-11.4 26.1-14.7 42.1-1.1 5.4-1.3 23.1-.3 28.5 1.8 10 6.3 16 11.9 16 3.9 0 6.2-2.5 11.4-12.5 8.5-16.1 19.3-31.4 28.9-41 10.1-10 16.6-14.9 18.7-14 .8.4 4.1 4 7.4 8.2 18.3 23.1 44.6 43.9 62.7 49.4 13.3 4 34.8 1.1 34.8-4.7 0-.7-5.3-6.6-11.8-13.1-17.3-17.3-28.4-34.3-34.7-53.4-3.6-10.7-3.8-12.3-1.7-14.2.9-.8 7-3.6 13.6-6.1 25.9-10 37.3-18.9 45.4-35.1 1.8-3.6 2.4-5.7 3.7-13.5.2-.8-.5-3-1.4-4.8l-1.7-3.3-4.9 2.7c-13.7 7.2-30.3 12.5-50 15.9-12.7 2.2-17.2 2.3-18.9.4-.8-.7-5.1-13.1-9.6-27.4-5.4-17.2-9-26.7-10.4-28.1-2.6-2.6-6-3.4-10.3-2.4z"/></svg>